<svg id="Layer_1" data-name="Layer 1" xmlns="http://www.w3.org/2000/svg" viewBox="0 0 362.6 248.24"><defs><style>.cls-1,.cls-4{fill:none;stroke:#231f20;stroke-miterlimit:10;}.cls-1{stroke-width:7px;}.cls-2{font-size:70px;letter-spacing:-0.06em;}.cls-2,.cls-5{fill:#231f20;font-family:Lato-Bold, Lato;font-weight:700;}.cls-3{letter-spacing:0em;}.cls-4{stroke-width:2px;}.cls-5{font-size:18px;letter-spacing:0.11em;}.cls-6{letter-spacing:0.09em;}.cls-7{letter-spacing:0.11em;}.cls-8{letter-spacing:0.07em;}</style></defs><path class="cls-1" d="M243.41,261.31l55-31.07a8.57,8.57,0,0,1,8.62.1l54.16,32.32a8.57,8.57,0,0,1,4.19,7.23L366.41,334a8.58,8.58,0,0,1-4.4,7.64l-55.08,30.64a8.6,8.6,0,0,1-8.41,0l-56.16-31.86a8.6,8.6,0,0,1-4.35-7.61l1-64.17A8.59,8.59,0,0,1,243.41,261.31Z" transform="translate(-120.79 -225.63)"/><path class="cls-1" d="M256.06,253.77l-.62,91.6,0,2.38,15.72,8.81,1.51-66.1.29-12.1a9.72,9.72,0,0,1,1.46-4.89,54,54,0,0,1,27.07-21.72,1.78,1.78,0,0,1,1.14-.05c3.15.89,18.41,5.85,27.29,20.87a9.91,9.91,0,0,1,1.38,4.81l1.68,79-.35,1.42,18.55-10.77L350,258.17l-.18-2" transform="translate(-120.79 -225.63)"/><path class="cls-1" d="M331.34,291.53c-7.12-12.63-20.25-19.37-28.7-21.36a1.87,1.87,0,0,0-1.1.06c-3.28,1.19-20.47,7.81-27,18.83l-1.93,4.15" transform="translate(-120.79 -225.63)"/><path class="cls-1" d="M331.34,308.93c-7.12-12.63-20.25-19.37-28.7-21.36a1.87,1.87,0,0,0-1.1.06c-3.28,1.18-21,8-27.51,19L272,310" transform="translate(-120.79 -225.63)"/><path class="cls-1" d="M331.8,309.92c-7.11-12.63-20.71-20.36-29.16-22.35" transform="translate(-120.79 -225.63)"/><text class="cls-2" transform="translate(0.25 216.45)">V<tspan class="cls-3" x="45.4" y="0">ardhaman</tspan></text><line class="cls-4" y1="238.84" x2="92.45" y2="238.87"/><line class="cls-4" x1="268.77" y1="238.87" x2="358.64" y2="238.67"/><text class="cls-5" transform="translate(99.55 245)">G<tspan class="cls-6" x="15.05" y="0">R</tspan><tspan class="cls-7" x="28.41" y="0" xml:space="preserve">UH  UDH</tspan><tspan class="cls-8" x="116.48" y="0">Y</tspan><tspan x="129.57" y="0">OG</tspan></text></svg>